<?xml version="1.0" encoding="UTF-8" ?>
<svg version="1.1" width="768" height="72" xmlns="http://www.w3.org/2000/svg" shape-rendering="crispEdges">
<rect x="0" y="0" width="6" height="6" fill="#1A7A3E" />
<rect x="6" y="0" width="372" height="6" fill="#14A02E" />
<rect x="378" y="0" width="6" height="6" fill="#24523B" />
<rect x="384" y="0" width="6" height="6" fill="#1A7A3E" />
<rect x="390" y="0" width="372" height="6" fill="#14A02E" />
<rect x="762" y="0" width="6" height="6" fill="#24523B" />
<rect x="0" y="6" width="66" height="6" fill="#24523B" />
<rect x="66" y="6" width="6" height="6" fill="#B4202A" />
<rect x="72" y="6" width="6" height="6" fill="#14A02E" />
<rect x="78" y="6" width="60" height="6" fill="#24523B" />
<rect x="138" y="6" width="6" height="6" fill="#59C135" />
<rect x="144" y="6" width="36" height="18" fill="#24523B" />
<rect x="180" y="6" width="6" height="6" fill="#14A02E" />
<rect x="186" y="6" width="24" height="6" fill="#24523B" />
<rect x="210" y="6" width="6" height="12" fill="#23674E" />
<rect x="216" y="6" width="24" height="18" fill="#24523B" />
<rect x="240" y="6" width="6" height="6" fill="#14A02E" />
<rect x="246" y="6" width="48" height="6" fill="#24523B" />
<rect x="294" y="6" width="6" height="6" fill="#59C135" />
<rect x="300" y="6" width="60" height="6" fill="#24523B" />
<rect x="360" y="6" width="6" height="6" fill="#14A02E" />
<rect x="366" y="6" width="12" height="18" fill="#24523B" />
<rect x="378" y="6" width="6" height="18" fill="#1A7A3E" />
<rect x="384" y="6" width="42" height="6" fill="#24523B" />
<rect x="426" y="6" width="6" height="6" fill="#23674E" />
<rect x="432" y="6" width="18" height="18" fill="#24523B" />
<rect x="450" y="6" width="6" height="6" fill="#B4202A" />
<rect x="456" y="6" width="6" height="6" fill="#14A02E" />
<rect x="462" y="6" width="60" height="6" fill="#24523B" />
<rect x="522" y="6" width="6" height="6" fill="#59C135" />
<rect x="528" y="6" width="36" height="18" fill="#24523B" />
<rect x="564" y="6" width="6" height="6" fill="#14A02E" />
<rect x="570" y="6" width="54" height="6" fill="#24523B" />
<rect x="624" y="6" width="6" height="6" fill="#14A02E" />
<rect x="630" y="6" width="48" height="6" fill="#24523B" />
<rect x="678" y="6" width="6" height="6" fill="#59C135" />
<rect x="684" y="6" width="36" height="6" fill="#24523B" />
<rect x="720" y="6" width="12" height="6" fill="#23674E" />
<rect x="732" y="6" width="12" height="6" fill="#24523B" />
<rect x="744" y="6" width="6" height="6" fill="#14A02E" />
<rect x="750" y="6" width="12" height="18" fill="#24523B" />
<rect x="762" y="6" width="6" height="18" fill="#1A7A3E" />
<rect x="0" y="12" width="6" height="12" fill="#24523B" />
<rect x="6" y="12" width="6" height="6" fill="#B4202A" />
<rect x="12" y="12" width="72" height="12" fill="#24523B" />
<rect x="84" y="12" width="18" height="6" fill="#23674E" />
<rect x="102" y="12" width="30" height="12" fill="#24523B" />
<rect x="132" y="12" width="6" height="6" fill="#59C135" />
<rect x="138" y="12" width="6" height="12" fill="#24523B" />
<rect x="180" y="12" width="24" height="12" fill="#24523B" />
<rect x="204" y="12" width="6" height="6" fill="#23674E" />
<rect x="240" y="12" width="36" height="12" fill="#24523B" />
<rect x="276" y="12" width="6" height="6" fill="#14A02E" />
<rect x="282" y="12" width="36" height="12" fill="#24523B" />
<rect x="318" y="12" width="6" height="6" fill="#B4202A" />
<rect x="324" y="12" width="18" height="12" fill="#24523B" />
<rect x="342" y="12" width="12" height="6" fill="#23674E" />
<rect x="354" y="12" width="12" height="12" fill="#24523B" />
<rect x="384" y="12" width="6" height="12" fill="#24523B" />
<rect x="390" y="12" width="6" height="6" fill="#B4202A" />
<rect x="396" y="12" width="18" height="12" fill="#24523B" />
<rect x="414" y="12" width="12" height="6" fill="#23674E" />
<rect x="426" y="12" width="6" height="12" fill="#24523B" />
<rect x="450" y="12" width="66" height="12" fill="#24523B" />
<rect x="516" y="12" width="6" height="6" fill="#59C135" />
<rect x="522" y="12" width="6" height="12" fill="#24523B" />
<rect x="564" y="12" width="18" height="12" fill="#24523B" />
<rect x="582" y="12" width="18" height="6" fill="#23674E" />
<rect x="600" y="12" width="60" height="6" fill="#24523B" />
<rect x="660" y="12" width="6" height="6" fill="#14A02E" />
<rect x="666" y="12" width="24" height="12" fill="#24523B" />
<rect x="690" y="12" width="6" height="6" fill="#23674E" />
<rect x="696" y="12" width="6" height="12" fill="#24523B" />
<rect x="702" y="12" width="6" height="6" fill="#B4202A" />
<rect x="708" y="12" width="18" height="12" fill="#24523B" />
<rect x="726" y="12" width="12" height="6" fill="#23674E" />
<rect x="738" y="12" width="12" height="12" fill="#24523B" />
<rect x="6" y="18" width="6" height="6" fill="#24523B" />
<rect x="84" y="18" width="18" height="6" fill="#24523B" />
<rect x="132" y="18" width="6" height="6" fill="#24523B" />
<rect x="204" y="18" width="12" height="6" fill="#24523B" />
<rect x="276" y="18" width="6" height="6" fill="#24523B" />
<rect x="318" y="18" width="6" height="6" fill="#24523B" />
<rect x="342" y="18" width="12" height="6" fill="#24523B" />
<rect x="390" y="18" width="6" height="6" fill="#24523B" />
<rect x="414" y="18" width="12" height="6" fill="#24523B" />
<rect x="516" y="18" width="6" height="6" fill="#24523B" />
<rect x="582" y="18" width="18" height="6" fill="#24523B" />
<rect x="600" y="18" width="6" height="6" fill="#23674E" />
<rect x="606" y="18" width="60" height="6" fill="#24523B" />
<rect x="690" y="18" width="6" height="6" fill="#24523B" />
<rect x="702" y="18" width="6" height="6" fill="#24523B" />
<rect x="726" y="18" width="12" height="6" fill="#24523B" />
<rect x="0" y="24" width="12" height="6" fill="#5B3138" />
<rect x="12" y="24" width="36" height="12" fill="#71413B" />
<rect x="48" y="24" width="18" height="12" fill="#5B3138" />
<rect x="66" y="24" width="12" height="12" fill="#71413B" />
<rect x="78" y="24" width="12" height="12" fill="#422433" />
<rect x="90" y="24" width="12" height="18" fill="#5B3138" />
<rect x="102" y="24" width="30" height="6" fill="#71413B" />
<rect x="132" y="24" width="6" height="6" fill="#5B3138" />
<rect x="138" y="24" width="12" height="12" fill="#422433" />
<rect x="150" y="24" width="12" height="18" fill="#5B3138" />
<rect x="162" y="24" width="12" height="6" fill="#422433" />
<rect x="174" y="24" width="12" height="12" fill="#5B3138" />
<rect x="186" y="24" width="6" height="6" fill="#8E5252" />
<rect x="192" y="24" width="12" height="6" fill="#5B3138" />
<rect x="204" y="24" width="18" height="12" fill="#71413B" />
<rect x="222" y="24" width="6" height="18" fill="#5B3138" />
<rect x="228" y="24" width="6" height="6" fill="#8E5252" />
<rect x="234" y="24" width="6" height="18" fill="#5B3138" />
<rect x="240" y="24" width="12" height="12" fill="#422433" />
<rect x="252" y="24" width="12" height="6" fill="#5B3138" />
<rect x="264" y="24" width="12" height="6" fill="#8E5252" />
<rect x="276" y="24" width="6" height="12" fill="#5B3138" />
<rect x="282" y="24" width="18" height="18" fill="#71413B" />
<rect x="300" y="24" width="12" height="12" fill="#422433" />
<rect x="312" y="24" width="6" height="12" fill="#5B3138" />
<rect x="318" y="24" width="6" height="30" fill="#71413B" />
<rect x="324" y="24" width="12" height="12" fill="#422433" />
<rect x="336" y="24" width="30" height="12" fill="#5B3138" />
<rect x="366" y="24" width="12" height="6" fill="#422433" />
<rect x="378" y="24" width="18" height="6" fill="#5B3138" />
<rect x="396" y="24" width="36" height="12" fill="#71413B" />
<rect x="432" y="24" width="18" height="12" fill="#5B3138" />
<rect x="450" y="24" width="12" height="12" fill="#71413B" />
<rect x="462" y="24" width="12" height="12" fill="#422433" />
<rect x="474" y="24" width="12" height="18" fill="#5B3138" />
<rect x="486" y="24" width="30" height="6" fill="#71413B" />
<rect x="516" y="24" width="6" height="6" fill="#5B3138" />
<rect x="522" y="24" width="12" height="12" fill="#422433" />
<rect x="534" y="24" width="12" height="18" fill="#5B3138" />
<rect x="546" y="24" width="12" height="6" fill="#422433" />
<rect x="558" y="24" width="12" height="12" fill="#5B3138" />
<rect x="570" y="24" width="6" height="6" fill="#8E5252" />
<rect x="576" y="24" width="12" height="6" fill="#5B3138" />
<rect x="588" y="24" width="18" height="12" fill="#71413B" />
<rect x="606" y="24" width="6" height="18" fill="#5B3138" />
<rect x="612" y="24" width="6" height="6" fill="#8E5252" />
<rect x="618" y="24" width="6" height="18" fill="#5B3138" />
<rect x="624" y="24" width="12" height="12" fill="#422433" />
<rect x="636" y="24" width="12" height="6" fill="#5B3138" />
<rect x="648" y="24" width="12" height="6" fill="#8E5252" />
<rect x="660" y="24" width="6" height="12" fill="#5B3138" />
<rect x="666" y="24" width="18" height="12" fill="#71413B" />
<rect x="684" y="24" width="12" height="12" fill="#422433" />
<rect x="696" y="24" width="6" height="12" fill="#5B3138" />
<rect x="702" y="24" width="6" height="30" fill="#71413B" />
<rect x="708" y="24" width="12" height="12" fill="#422433" />
<rect x="720" y="24" width="30" height="12" fill="#5B3138" />
<rect x="750" y="24" width="12" height="6" fill="#422433" />
<rect x="762" y="24" width="6" height="42" fill="#5B3138" />
<rect x="0" y="30" width="6" height="6" fill="#8E5252" />
<rect x="6" y="30" width="6" height="12" fill="#71413B" />
<rect x="102" y="30" width="24" height="6" fill="#71413B" />
<rect x="126" y="30" width="12" height="12" fill="#422433" />
<rect x="162" y="30" width="12" height="6" fill="#5B3138" />
<rect x="186" y="30" width="6" height="12" fill="#5B3138" />
<rect x="192" y="30" width="12" height="30" fill="#422433" />
<rect x="228" y="30" width="6" height="12" fill="#5B3138" />
<rect x="252" y="30" width="12" height="12" fill="#71413B" />
<rect x="264" y="30" width="12" height="12" fill="#5B3138" />
<rect x="366" y="30" width="18" height="6" fill="#5B3138" />
<rect x="384" y="30" width="6" height="6" fill="#8E5252" />
<rect x="390" y="30" width="6" height="12" fill="#71413B" />
<rect x="486" y="30" width="24" height="6" fill="#71413B" />
<rect x="510" y="30" width="12" height="12" fill="#422433" />
<rect x="546" y="30" width="12" height="6" fill="#5B3138" />
<rect x="570" y="30" width="6" height="12" fill="#5B3138" />
<rect x="576" y="30" width="12" height="30" fill="#422433" />
<rect x="612" y="30" width="6" height="12" fill="#5B3138" />
<rect x="636" y="30" width="12" height="12" fill="#71413B" />
<rect x="648" y="30" width="12" height="12" fill="#5B3138" />
<rect x="750" y="30" width="12" height="6" fill="#5B3138" />
<rect x="0" y="36" width="6" height="12" fill="#5B3138" />
<rect x="12" y="36" width="24" height="6" fill="#71413B" />
<rect x="36" y="36" width="12" height="6" fill="#5B3138" />
<rect x="48" y="36" width="6" height="12" fill="#71413B" />
<rect x="54" y="36" width="12" height="6" fill="#422433" />
<rect x="66" y="36" width="24" height="6" fill="#5B3138" />
<rect x="102" y="36" width="6" height="6" fill="#422433" />
<rect x="108" y="36" width="12" height="6" fill="#BA756A" />
<rect x="120" y="36" width="6" height="6" fill="#71413B" />
<rect x="138" y="36" width="12" height="6" fill="#5B3138" />
<rect x="162" y="36" width="6" height="6" fill="#8E5252" />
<rect x="168" y="36" width="12" height="12" fill="#71413B" />
<rect x="180" y="36" width="6" height="6" fill="#5B3138" />
<rect x="204" y="36" width="18" height="6" fill="#5B3138" />
<rect x="240" y="36" width="6" height="6" fill="#5B3138" />
<rect x="246" y="36" width="6" height="24" fill="#71413B" />
<rect x="276" y="36" width="6" height="24" fill="#422433" />
<rect x="300" y="36" width="18" height="12" fill="#71413B" />
<rect x="324" y="36" width="66" height="6" fill="#71413B" />
<rect x="396" y="36" width="24" height="6" fill="#71413B" />
<rect x="420" y="36" width="12" height="6" fill="#5B3138" />
<rect x="432" y="36" width="6" height="12" fill="#71413B" />
<rect x="438" y="36" width="12" height="6" fill="#422433" />
<rect x="450" y="36" width="24" height="6" fill="#5B3138" />
<rect x="486" y="36" width="6" height="6" fill="#422433" />
<rect x="492" y="36" width="12" height="6" fill="#BA756A" />
<rect x="504" y="36" width="6" height="6" fill="#71413B" />
<rect x="522" y="36" width="12" height="6" fill="#5B3138" />
<rect x="546" y="36" width="6" height="6" fill="#8E5252" />
<rect x="552" y="36" width="12" height="12" fill="#71413B" />
<rect x="564" y="36" width="6" height="6" fill="#5B3138" />
<rect x="588" y="36" width="18" height="6" fill="#5B3138" />
<rect x="624" y="36" width="6" height="6" fill="#5B3138" />
<rect x="630" y="36" width="6" height="24" fill="#71413B" />
<rect x="660" y="36" width="18" height="6" fill="#422433" />
<rect x="678" y="36" width="6" height="12" fill="#71413B" />
<rect x="684" y="36" width="6" height="36" fill="#422433" />
<rect x="690" y="36" width="12" height="30" fill="#71413B" />
<rect x="708" y="36" width="54" height="6" fill="#71413B" />
<rect x="6" y="42" width="12" height="6" fill="#BA756A" />
<rect x="18" y="42" width="6" height="18" fill="#71413B" />
<rect x="24" y="42" width="6" height="6" fill="#5B3138" />
<rect x="30" y="42" width="18" height="6" fill="#422433" />
<rect x="54" y="42" width="6" height="6" fill="#71413B" />
<rect x="60" y="42" width="6" height="6" fill="#8E5252" />
<rect x="66" y="42" width="24" height="6" fill="#422433" />
<rect x="90" y="42" width="6" height="6" fill="#5B3138" />
<rect x="96" y="42" width="12" height="18" fill="#71413B" />
<rect x="108" y="42" width="6" height="12" fill="#BA756A" />
<rect x="114" y="42" width="12" height="6" fill="#E9B5A3" />
<rect x="126" y="42" width="30" height="6" fill="#71413B" />
<rect x="156" y="42" width="6" height="6" fill="#E9B5A3" />
<rect x="162" y="42" width="6" height="18" fill="#71413B" />
<rect x="180" y="42" width="12" height="18" fill="#422433" />
<rect x="204" y="42" width="6" height="30" fill="#422433" />
<rect x="210" y="42" width="36" height="12" fill="#71413B" />
<rect x="252" y="42" width="6" height="12" fill="#422433" />
<rect x="258" y="42" width="18" height="6" fill="#71413B" />
<rect x="282" y="42" width="12" height="30" fill="#422433" />
<rect x="294" y="42" width="6" height="6" fill="#71413B" />
<rect x="324" y="42" width="30" height="6" fill="#71413B" />
<rect x="354" y="42" width="12" height="6" fill="#422433" />
<rect x="366" y="42" width="18" height="24" fill="#71413B" />
<rect x="384" y="42" width="6" height="6" fill="#5B3138" />
<rect x="390" y="42" width="12" height="6" fill="#BA756A" />
<rect x="402" y="42" width="6" height="18" fill="#71413B" />
<rect x="408" y="42" width="6" height="6" fill="#5B3138" />
<rect x="414" y="42" width="18" height="6" fill="#422433" />
<rect x="438" y="42" width="6" height="6" fill="#71413B" />
<rect x="444" y="42" width="6" height="6" fill="#8E5252" />
<rect x="450" y="42" width="24" height="6" fill="#422433" />
<rect x="474" y="42" width="6" height="6" fill="#5B3138" />
<rect x="480" y="42" width="12" height="18" fill="#71413B" />
<rect x="492" y="42" width="6" height="12" fill="#BA756A" />
<rect x="498" y="42" width="12" height="6" fill="#E9B5A3" />
<rect x="510" y="42" width="30" height="6" fill="#71413B" />
<rect x="540" y="42" width="6" height="6" fill="#E9B5A3" />
<rect x="546" y="42" width="6" height="18" fill="#71413B" />
<rect x="564" y="42" width="12" height="18" fill="#422433" />
<rect x="588" y="42" width="6" height="30" fill="#422433" />
<rect x="594" y="42" width="36" height="12" fill="#71413B" />
<rect x="636" y="42" width="6" height="12" fill="#422433" />
<rect x="642" y="42" width="36" height="6" fill="#71413B" />
<rect x="708" y="42" width="30" height="6" fill="#71413B" />
<rect x="738" y="42" width="12" height="6" fill="#422433" />
<rect x="750" y="42" width="12" height="24" fill="#71413B" />
<rect x="0" y="48" width="18" height="6" fill="#71413B" />
<rect x="24" y="48" width="24" height="12" fill="#71413B" />
<rect x="48" y="48" width="12" height="6" fill="#BA756A" />
<rect x="60" y="48" width="6" height="18" fill="#71413B" />
<rect x="66" y="48" width="18" height="12" fill="#422433" />
<rect x="84" y="48" width="6" height="12" fill="#BA756A" />
<rect x="90" y="48" width="6" height="6" fill="#71413B" />
<rect x="114" y="48" width="6" height="12" fill="#BA756A" />
<rect x="120" y="48" width="12" height="6" fill="#E9B5A3" />
<rect x="132" y="48" width="6" height="6" fill="#BA756A" />
<rect x="138" y="48" width="24" height="6" fill="#71413B" />
<rect x="168" y="48" width="12" height="6" fill="#5B3138" />
<rect x="258" y="48" width="6" height="12" fill="#422433" />
<rect x="264" y="48" width="12" height="12" fill="#71413B" />
<rect x="294" y="48" width="12" height="24" fill="#422433" />
<rect x="306" y="48" width="12" height="18" fill="#71413B" />
<rect x="324" y="48" width="6" height="12" fill="#71413B" />
<rect x="330" y="48" width="12" height="24" fill="#422433" />
<rect x="342" y="48" width="6" height="6" fill="#71413B" />
<rect x="348" y="48" width="12" height="6" fill="#422433" />
<rect x="360" y="48" width="6" height="18" fill="#71413B" />
<rect x="384" y="48" width="18" height="6" fill="#71413B" />
<rect x="408" y="48" width="24" height="12" fill="#71413B" />
<rect x="432" y="48" width="12" height="6" fill="#BA756A" />
<rect x="444" y="48" width="6" height="18" fill="#71413B" />
<rect x="450" y="48" width="18" height="12" fill="#422433" />
<rect x="468" y="48" width="6" height="12" fill="#BA756A" />
<rect x="474" y="48" width="6" height="6" fill="#71413B" />
<rect x="498" y="48" width="6" height="12" fill="#BA756A" />
<rect x="504" y="48" width="12" height="6" fill="#E9B5A3" />
<rect x="516" y="48" width="6" height="6" fill="#BA756A" />
<rect x="522" y="48" width="24" height="6" fill="#71413B" />
<rect x="552" y="48" width="12" height="6" fill="#5B3138" />
<rect x="642" y="48" width="6" height="12" fill="#422433" />
<rect x="648" y="48" width="12" height="12" fill="#71413B" />
<rect x="660" y="48" width="24" height="12" fill="#422433" />
<rect x="708" y="48" width="6" height="12" fill="#71413B" />
<rect x="714" y="48" width="12" height="24" fill="#422433" />
<rect x="726" y="48" width="6" height="6" fill="#71413B" />
<rect x="732" y="48" width="12" height="6" fill="#422433" />
<rect x="744" y="48" width="6" height="18" fill="#71413B" />
<rect x="0" y="54" width="12" height="6" fill="#8E5252" />
<rect x="12" y="54" width="6" height="12" fill="#71413B" />
<rect x="48" y="54" width="12" height="12" fill="#71413B" />
<rect x="90" y="54" width="6" height="6" fill="#BA756A" />
<rect x="108" y="54" width="6" height="12" fill="#71413B" />
<rect x="120" y="54" width="6" height="6" fill="#BA756A" />
<rect x="126" y="54" width="18" height="6" fill="#E9B5A3" />
<rect x="144" y="54" width="18" height="6" fill="#71413B" />
<rect x="168" y="54" width="6" height="6" fill="#71413B" />
<rect x="174" y="54" width="6" height="12" fill="#5B3138" />
<rect x="210" y="54" width="12" height="12" fill="#71413B" />
<rect x="222" y="54" width="12" height="6" fill="#E9B5A3" />
<rect x="234" y="54" width="12" height="6" fill="#71413B" />
<rect x="252" y="54" width="6" height="6" fill="#71413B" />
<rect x="318" y="54" width="6" height="18" fill="#422433" />
<rect x="342" y="54" width="12" height="6" fill="#422433" />
<rect x="354" y="54" width="6" height="12" fill="#71413B" />
<rect x="384" y="54" width="12" height="6" fill="#8E5252" />
<rect x="396" y="54" width="6" height="12" fill="#71413B" />
<rect x="432" y="54" width="12" height="12" fill="#71413B" />
<rect x="474" y="54" width="6" height="6" fill="#BA756A" />
<rect x="492" y="54" width="6" height="12" fill="#71413B" />
<rect x="504" y="54" width="6" height="6" fill="#BA756A" />
<rect x="510" y="54" width="18" height="6" fill="#E9B5A3" />
<rect x="528" y="54" width="18" height="6" fill="#71413B" />
<rect x="552" y="54" width="6" height="6" fill="#71413B" />
<rect x="558" y="54" width="6" height="12" fill="#5B3138" />
<rect x="594" y="54" width="12" height="12" fill="#71413B" />
<rect x="606" y="54" width="12" height="6" fill="#E9B5A3" />
<rect x="618" y="54" width="12" height="6" fill="#71413B" />
<rect x="636" y="54" width="6" height="6" fill="#71413B" />
<rect x="702" y="54" width="6" height="18" fill="#422433" />
<rect x="726" y="54" width="12" height="6" fill="#422433" />
<rect x="738" y="54" width="6" height="12" fill="#71413B" />
<rect x="0" y="60" width="6" height="6" fill="#71413B" />
<rect x="6" y="60" width="6" height="6" fill="#8E5252" />
<rect x="18" y="60" width="12" height="6" fill="#8E5252" />
<rect x="30" y="60" width="18" height="6" fill="#71413B" />
<rect x="66" y="60" width="12" height="6" fill="#8E5252" />
<rect x="78" y="60" width="30" height="6" fill="#5B3138" />
<rect x="114" y="60" width="30" height="6" fill="#71413B" />
<rect x="144" y="60" width="30" height="6" fill="#5B3138" />
<rect x="180" y="60" width="24" height="6" fill="#5B3138" />
<rect x="222" y="60" width="6" height="12" fill="#422433" />
<rect x="228" y="60" width="6" height="6" fill="#E9B5A3" />
<rect x="234" y="60" width="6" height="6" fill="#71413B" />
<rect x="240" y="60" width="18" height="12" fill="#422433" />
<rect x="258" y="60" width="12" height="6" fill="#71413B" />
<rect x="270" y="60" width="6" height="6" fill="#5B3138" />
<rect x="276" y="60" width="6" height="6" fill="#71413B" />
<rect x="324" y="60" width="6" height="12" fill="#422433" />
<rect x="342" y="60" width="6" height="12" fill="#422433" />
<rect x="348" y="60" width="6" height="6" fill="#71413B" />
<rect x="384" y="60" width="6" height="6" fill="#71413B" />
<rect x="390" y="60" width="6" height="6" fill="#8E5252" />
<rect x="402" y="60" width="12" height="6" fill="#8E5252" />
<rect x="414" y="60" width="18" height="6" fill="#71413B" />
<rect x="450" y="60" width="12" height="6" fill="#8E5252" />
<rect x="462" y="60" width="30" height="6" fill="#5B3138" />
<rect x="498" y="60" width="30" height="6" fill="#71413B" />
<rect x="528" y="60" width="30" height="6" fill="#5B3138" />
<rect x="564" y="60" width="24" height="6" fill="#5B3138" />
<rect x="606" y="60" width="6" height="12" fill="#422433" />
<rect x="612" y="60" width="6" height="6" fill="#E9B5A3" />
<rect x="618" y="60" width="6" height="6" fill="#71413B" />
<rect x="624" y="60" width="18" height="12" fill="#422433" />
<rect x="642" y="60" width="12" height="6" fill="#71413B" />
<rect x="654" y="60" width="6" height="6" fill="#5B3138" />
<rect x="660" y="60" width="6" height="6" fill="#71413B" />
<rect x="666" y="60" width="18" height="12" fill="#422433" />
<rect x="708" y="60" width="6" height="12" fill="#422433" />
<rect x="726" y="60" width="6" height="12" fill="#422433" />
<rect x="732" y="60" width="6" height="6" fill="#71413B" />
<rect x="0" y="66" width="204" height="6" fill="#422433" />
<rect x="210" y="66" width="12" height="6" fill="#422433" />
<rect x="228" y="66" width="12" height="6" fill="#422433" />
<rect x="258" y="66" width="24" height="6" fill="#422433" />
<rect x="306" y="66" width="12" height="6" fill="#422433" />
<rect x="348" y="66" width="30" height="6" fill="#422433" />
<rect x="378" y="66" width="6" height="6" fill="#542E41" />
<rect x="384" y="66" width="204" height="6" fill="#422433" />
<rect x="594" y="66" width="12" height="6" fill="#422433" />
<rect x="612" y="66" width="12" height="6" fill="#422433" />
<rect x="642" y="66" width="24" height="6" fill="#422433" />
<rect x="690" y="66" width="12" height="6" fill="#422433" />
<rect x="732" y="66" width="30" height="6" fill="#422433" />
<rect x="762" y="66" width="6" height="6" fill="#542E41" />
</svg>